<?xml version="1.0" encoding="utf-8"?>
<!-- Generator: Adobe Illustrator 23.0.0, SVG Export Plug-In . SVG Version: 6.00 Build 0)  -->
<svg version="1.1" id="Layer_1" xmlns="http://www.w3.org/2000/svg" xmlns:xlink="http://www.w3.org/1999/xlink" x="0px" y="0px"
	 viewBox="0 0 100 100" style="enable-background:new 0 0 100 100;" xml:space="preserve">
<style type="text/css">
	.st0{fill:#FFFFFF;}
</style>
<g id="Party_Mask">
	<g id="Glyph">
		<path class="st0" d="M63.9,13.9c-0.3-0.5-0.9-0.6-1.5-0.4c-0.1,0.1-2,0.8-4,2.6c0.4,1.7,0.5,3.4,0.5,5.2v22c0,1.3,1.8,1.6,2.2,0.4
			c0,0,0,0,0,0l4.6-16C68.1,19.6,64.1,14.1,63.9,13.9z"/>
		<path class="st0" d="M50.8,7.3c-0.5-0.4-1.2-0.4-1.6,0c-0.2,0.2-5.6,4.8-5.6,13.9v24.4c0,1.3,0.4,2.7,1.1,4.1
			c3.2-2.4,7.5-2.4,10.7,0c0.6-1.4,1.1-2.8,1.1-4.1V21.2C56.4,12.1,51.1,7.5,50.8,7.3z M51.3,41.6c0,0.7-0.6,1.3-1.3,1.3
			c-0.7,0-1.3-0.6-1.3-1.3V26.2c0-0.7,0.6-1.3,1.3-1.3c0.7,0,1.3,0.6,1.3,1.3V41.6z"/>
		<path class="st0" d="M90.3,45.6c-0.6-0.3-1.2-0.1-1.6,0.5c-3,4.5-8,7.1-13.3,7.1c0,0-7.5,0-12.6,0c-2.1,0-3.7,1.7-3.7,3.8
			c0,0,0,0,0,0v5c0,4.9-3.9,9-8.8,9.1c-5,0.1-9-3.9-9.1-8.8c0,0,0-0.1,0-0.1c0,0,0-5.2,0-5.2c0-2.1-1.6-3.8-3.7-3.8c0,0,0,0,0,0
			H24.6c-5.3,0-10.3-2.7-13.3-7.1c-0.3-0.5-1-0.7-1.6-0.5C9.3,45.8,9,46.3,9,46.8v16.8c0,9.8,8,17.8,17.8,17.8l0,0h10.3
			c2,0,3.8-1.3,4.5-3.2l0.8-2.3c0.2-0.7,0.9-1,1.6-0.9c0.7,0.2,1.1,0.9,0.9,1.6c0,0,0,0.1,0,0.1l-1.3,3.8C43,82,43.2,83.9,44,85.5
			l0,0c1.8,3.3,5.9,4.5,9.2,2.7c1.1-0.6,2.1-1.6,2.7-2.7l0,0c0.9-1.6,1-3.4,0.5-5.1l-1.3-3.8C55,75.9,55.3,75.2,56,75
			c0,0,0.1,0,0.1,0c0.7-0.2,1.3,0.2,1.6,0.9l0.8,2.3c0.6,1.9,2.5,3.2,4.5,3.2h10.3c9.8,0,17.8-8,17.8-17.8l0,0V46.8
			C91,46.3,90.7,45.8,90.3,45.6z M30.2,71.1c-7.9,0-10.2-5.2-10.8-7.1c1.4-1,5.1-3.1,9.4-3.1c2.7,0,4.6,2,6.4,4
			c1.1,1.2,2.3,2.5,3.7,3.2C37.6,69.4,35,71.1,30.2,71.1z M69.8,71.1c-4.9,0-7.4-1.7-8.7-3.1c1.4-0.7,2.5-1.9,3.7-3.2
			c1.8-2,3.7-4,6.4-4c4.3,0,8,2.1,9.4,3.1C80,65.9,77.7,71.1,69.8,71.1z"/>
		<path class="st0" d="M50,50.6c-3.5,0-6.4,2.9-6.4,6.4v5.1c0,3.5,2.9,6.4,6.4,6.4c3.5,0,6.4-2.9,6.4-6.4V57
			C56.4,53.4,53.5,50.6,50,50.6z M51.3,62.1c0,0.7-0.6,1.3-1.3,1.3c-0.7,0-1.3-0.6-1.3-1.3V57c0-0.7,0.6-1.3,1.3-1.3
			c0.7,0,1.3,0.6,1.3,1.3V62.1z"/>
		<path class="st0" d="M38.7,43.7c0.5,1.2,2.3,0.9,2.3-0.5v-22c0-1.7,0.2-3.4,0.5-5c-2.1-1.9-4-2.6-4.1-2.7c-0.5-0.2-1.1,0-1.5,0.4
			c-0.2,0.2-4.2,5.7-1.9,13.6l4.6,16C38.7,43.6,38.7,43.6,38.7,43.7L38.7,43.7z"/>
	</g>
</g>
</svg>
